<mxfile host="app.diagrams.net" modified="2023-11-06T01:34:13.449Z" agent="Mozilla/5.0 (Windows NT 10.0; Win64; x64) AppleWebKit/537.36 (KHTML, like Gecko) Chrome/119.0.0.0 Safari/537.36" etag="gAMRFikNNqmTCzThXhVf" version="22.0.8" type="device">
  <diagram name="페이지-1" id="jMa91KVqN_kCi8uo8y37">
    <mxGraphModel dx="1434" dy="750" grid="1" gridSize="10" guides="1" tooltips="1" connect="1" arrows="1" fold="1" page="1" pageScale="1" pageWidth="827" pageHeight="1169" math="0" shadow="0">
      <root>
        <mxCell id="0" />
        <mxCell id="1" parent="0" />
        <mxCell id="5NOL_GgYFDbeDveFbk04-1" value="&lt;p style=&quot;&quot;&gt;&lt;br&gt;&lt;/p&gt;" style="rounded=0;whiteSpace=wrap;html=1;align=center;" vertex="1" parent="1">
          <mxGeometry x="300" y="90" width="370" height="460" as="geometry" />
        </mxCell>
        <mxCell id="5NOL_GgYFDbeDveFbk04-2" value="&lt;b style=&quot;border-color: var(--border-color); background-color: initial; font-size: 16px;&quot;&gt;[SYSTEM] POST BOARD&lt;/b&gt;" style="text;html=1;strokeColor=none;fillColor=none;align=center;verticalAlign=middle;whiteSpace=wrap;rounded=0;" vertex="1" parent="1">
          <mxGeometry x="335" y="110" width="290" height="30" as="geometry" />
        </mxCell>
        <mxCell id="5NOL_GgYFDbeDveFbk04-5" value="게시글 작성" style="ellipse;whiteSpace=wrap;html=1;" vertex="1" parent="1">
          <mxGeometry x="330" y="182.5" width="120" height="50" as="geometry" />
        </mxCell>
        <mxCell id="5NOL_GgYFDbeDveFbk04-6" value="게시글 목록 조회" style="ellipse;whiteSpace=wrap;html=1;" vertex="1" parent="1">
          <mxGeometry x="330" y="252.5" width="120" height="50" as="geometry" />
        </mxCell>
        <mxCell id="5NOL_GgYFDbeDveFbk04-7" value="게시글 조회" style="ellipse;whiteSpace=wrap;html=1;" vertex="1" parent="1">
          <mxGeometry x="530" y="330" width="120" height="50" as="geometry" />
        </mxCell>
        <mxCell id="5NOL_GgYFDbeDveFbk04-8" value="게시글 수정" style="ellipse;whiteSpace=wrap;html=1;" vertex="1" parent="1">
          <mxGeometry x="530" y="405" width="120" height="50" as="geometry" />
        </mxCell>
        <mxCell id="5NOL_GgYFDbeDveFbk04-9" value="게시글 삭제" style="ellipse;whiteSpace=wrap;html=1;" vertex="1" parent="1">
          <mxGeometry x="530" y="475" width="120" height="50" as="geometry" />
        </mxCell>
        <mxCell id="5NOL_GgYFDbeDveFbk04-10" value="게시글 보기" style="ellipse;whiteSpace=wrap;html=1;" vertex="1" parent="1">
          <mxGeometry x="330" y="405" width="120" height="50" as="geometry" />
        </mxCell>
        <mxCell id="5NOL_GgYFDbeDveFbk04-14" value="User" style="shape=umlActor;verticalLabelPosition=bottom;verticalAlign=top;html=1;outlineConnect=0;" vertex="1" parent="1">
          <mxGeometry x="200" y="280" width="40" height="80" as="geometry" />
        </mxCell>
        <mxCell id="5NOL_GgYFDbeDveFbk04-24" value="" style="endArrow=none;html=1;rounded=0;entryX=0;entryY=0.5;entryDx=0;entryDy=0;" edge="1" parent="1" source="5NOL_GgYFDbeDveFbk04-14" target="5NOL_GgYFDbeDveFbk04-10">
          <mxGeometry width="50" height="50" relative="1" as="geometry">
            <mxPoint x="450" y="390" as="sourcePoint" />
            <mxPoint x="500" y="340" as="targetPoint" />
          </mxGeometry>
        </mxCell>
        <mxCell id="5NOL_GgYFDbeDveFbk04-25" value="" style="endArrow=none;html=1;rounded=0;entryX=0;entryY=0.5;entryDx=0;entryDy=0;" edge="1" parent="1" source="5NOL_GgYFDbeDveFbk04-14" target="5NOL_GgYFDbeDveFbk04-6">
          <mxGeometry width="50" height="50" relative="1" as="geometry">
            <mxPoint x="450" y="390" as="sourcePoint" />
            <mxPoint x="500" y="340" as="targetPoint" />
          </mxGeometry>
        </mxCell>
        <mxCell id="5NOL_GgYFDbeDveFbk04-26" value="" style="endArrow=none;html=1;rounded=0;entryX=0;entryY=0.5;entryDx=0;entryDy=0;" edge="1" parent="1" source="5NOL_GgYFDbeDveFbk04-14" target="5NOL_GgYFDbeDveFbk04-5">
          <mxGeometry width="50" height="50" relative="1" as="geometry">
            <mxPoint x="450" y="390" as="sourcePoint" />
            <mxPoint x="500" y="340" as="targetPoint" />
          </mxGeometry>
        </mxCell>
        <mxCell id="5NOL_GgYFDbeDveFbk04-28" value="Extends" style="endArrow=block;endSize=16;endFill=0;html=1;rounded=0;exitX=0;exitY=0.5;exitDx=0;exitDy=0;entryX=1;entryY=0;entryDx=0;entryDy=0;" edge="1" parent="1" source="5NOL_GgYFDbeDveFbk04-7" target="5NOL_GgYFDbeDveFbk04-10">
          <mxGeometry width="160" relative="1" as="geometry">
            <mxPoint x="390" y="370" as="sourcePoint" />
            <mxPoint x="550" y="370" as="targetPoint" />
          </mxGeometry>
        </mxCell>
        <mxCell id="5NOL_GgYFDbeDveFbk04-29" value="Extends" style="endArrow=block;endSize=16;endFill=0;html=1;rounded=0;exitX=0;exitY=0.5;exitDx=0;exitDy=0;entryX=1;entryY=0.5;entryDx=0;entryDy=0;" edge="1" parent="1" source="5NOL_GgYFDbeDveFbk04-8" target="5NOL_GgYFDbeDveFbk04-10">
          <mxGeometry width="160" relative="1" as="geometry">
            <mxPoint x="390" y="370" as="sourcePoint" />
            <mxPoint x="550" y="370" as="targetPoint" />
          </mxGeometry>
        </mxCell>
        <mxCell id="5NOL_GgYFDbeDveFbk04-30" value="Extends" style="endArrow=block;endSize=16;endFill=0;html=1;rounded=0;exitX=0;exitY=0.5;exitDx=0;exitDy=0;" edge="1" parent="1" source="5NOL_GgYFDbeDveFbk04-9" target="5NOL_GgYFDbeDveFbk04-10">
          <mxGeometry width="160" relative="1" as="geometry">
            <mxPoint x="390" y="370" as="sourcePoint" />
            <mxPoint x="550" y="370" as="targetPoint" />
          </mxGeometry>
        </mxCell>
      </root>
    </mxGraphModel>
  </diagram>
</mxfile>
